{
  "source": "C:\\Users\\Peter\\Desktop\\stuff\\MIUN\\quantitative_research\\video_compression\\videos\\BVI-HD\\BridgeRiver_1920x1080_30fps.mp4",
  "output": "C:\\Users\\Peter\\Desktop\\stuff\\MIUN\\quantitative_research\\video_compression\\compressed_videos\\BVI-HD\\h264\\12\\BridgeRiver_1920x1080_30fps_h264.mp4",
  "codec": "h264",
  "ok": "Input #0, mov,mp4,m4a,3gp,3g2,mj2, from 'C:\\Users\\Peter\\Desktop\\stuff\\MIUN\\quantitative_research\\video_compression\\videos\\BVI-HD\\BridgeRiver_1920x1080_30fps.mp4':\n  Metadata:\n    major_brand     : isom\n    minor_version   : 512\n    compatible_brands: isomiso2avc1mp41\n    encoder         : Lavf54.28.101\n  Duration: 00:00:05.00, start: 0.000000, bitrate: 274913 kb/s\n  Stream #0:0[0x1](und): Video: h264 (High 4:4:4 Predictive) (avc1 / 0x31637661), yuv420p(progressive), 1920x1080, 274910 kb/s, 30 fps, 30 tbr, 30 tbn (default)\n    Metadata:\n      handler_name    : VideoHandler\n      vendor_id       : [0][0][0][0]\n[out#0/mp4 @ 0000023071ca9b40] Codec AVOption b:a (set bitrate (in bits/s)) has not been used for any stream. The most likely reason is either wrong type (e.g. a video option with no video streams) or that it is a private option of some decoder which was not actually used for any stream.\nStream mapping:\n  Stream #0:0 -> #0:0 (h264 (native) -> h264 (libx264))\nPress [q] to stop, [?] for help\n[libx264 @ 0000023072a175c0] using cpu capabilities: MMX2 SSE2Fast SSSE3 SSE4.2 AVX FMA3 BMI2 AVX2\n[libx264 @ 0000023072a175c0] profile High, level 5.0, 4:2:0, 8-bit\n[libx264 @ 0000023072a175c0] 264 - core 165 r3222 b35605a - H.264/MPEG-4 AVC codec - Copyleft 2003-2025 - http://www.videolan.org/x264.html - options: cabac=1 ref=5 deblock=1:0:0 analyse=0x3:0x113 me=hex subme=8 psy=1 psy_rd=1.00:0.00 mixed_ref=1 me_range=16 chroma_me=1 trellis=2 8x8dct=1 cqm=0 deadzone=21,11 fast_pskip=1 chroma_qp_offset=-2 threads=18 lookahead_threads=3 sliced_threads=0 nr=0 decimate=1 interlaced=0 bluray_compat=0 constrained_intra=0 bframes=3 b_pyramid=2 b_adapt=1 b_bias=0 direct=3 weightb=1 open_gop=0 weightp=2 keyint=250 keyint_min=25 scenecut=40 intra_refresh=0 rc_lookahead=50 rc=cbr mbtree=1 bitrate=12000 ratetol=1.0 qcomp=0.60 qpmin=0 qpmax=69 qpstep=4 vbv_maxrate=12000 vbv_bufsize=12000 nal_hrd=none filler=0 ip_ratio=1.40 aq=1:1.00\nOutput #0, mp4, to 'C:\\Users\\Peter\\Desktop\\stuff\\MIUN\\quantitative_research\\video_compression\\compressed_videos\\BVI-HD\\h264\\12\\BridgeRiver_1920x1080_30fps_h264.mp4':\n  Metadata:\n    major_brand     : isom\n    minor_version   : 512\n    compatible_brands: isomiso2avc1mp41\n    encoder         : Lavf62.3.100\n  Stream #0:0(und): Video: h264 (avc1 / 0x31637661), yuv420p(tv, progressive), 1920x1080, q=2-31, 12000 kb/s, 30 fps, 15360 tbn (default)\n    Metadata:\n      encoder         : Lavc62.11.100 libx264\n      handler_name    : VideoHandler\n      vendor_id       : [0][0][0][0]\n    Side data:\n      cpb: bitrate max/min/avg: 12000000/0/12000000 buffer size: 12000000 vbv_delay: N/A\nframe=    0 fps=0.0 q=0.0 size=       0KiB time=N/A bitrate=N/A speed=N/A elapsed=0:00:02.56    \nframe=    0 fps=0.0 q=0.0 size=       0KiB time=N/A bitrate=N/A speed=N/A elapsed=0:00:03.82    \nframe=    0 fps=0.0 q=0.0 size=       0KiB time=N/A bitrate=N/A speed=N/A elapsed=0:00:04.49    \nframe=    0 fps=0.0 q=0.0 size=       0KiB time=N/A bitrate=N/A speed=N/A elapsed=0:00:05.13    \nframe=    0 fps=0.0 q=0.0 size=       0KiB time=N/A bitrate=N/A speed=N/A elapsed=0:00:05.73    \nframe=    1 fps=0.2 q=32.0 size=       0KiB time=-00:00:00.03 bitrate=N/A speed=N/A elapsed=0:00:06.32    \nframe=    5 fps=0.7 q=32.0 size=     256KiB time=00:00:00.10 bitrate=20975.4kbits/s speed=0.0145x elapsed=0:00:06.91    \nframe=   17 fps=2.2 q=32.0 size=     768KiB time=00:00:00.36 bitrate=17159.5kbits/s speed=0.0484x elapsed=0:00:07.57    \nframe=   33 fps=3.9 q=31.0 size=    1536KiB time=00:00:00.90 bitrate=13981.4kbits/s speed=0.106x elapsed=0:00:08.46    \nframe=   33 fps=3.6 q=31.0 size=    1536KiB time=00:00:01.03 bitrate=12177.4kbits/s speed=0.112x elapsed=0:00:09.20    \nframe=   41 fps=4.1 q=31.0 size=    1792KiB time=00:00:01.30 bitrate=11292.7kbits/s speed=0.131x elapsed=0:00:09.94    \nframe=   52 fps=5.0 q=31.0 size=    2304KiB time=00:00:01.66 bitrate=11324.8kbits/s speed=0.159x elapsed=0:00:10.45    \nframe=   54 fps=4.9 q=31.0 size=    2304KiB time=00:00:01.73 bitrate=10889.3kbits/s speed=0.158x elapsed=0:00:10.97    \nframe=   57 fps=5.0 q=31.0 size=    2560KiB time=00:00:01.83 bitrate=11439.2kbits/s speed=0.159x elapsed=0:00:11.50    \nframe=   66 fps=5.5 q=31.0 size=    2816KiB time=00:00:02.13 bitrate=10813.6kbits/s speed=0.178x elapsed=0:00:12.00    \nframe=   77 fps=6.1 q=31.0 size=    3328KiB time=00:00:02.50 bitrate=10905.3kbits/s speed= 0.2x elapsed=0:00:12.52    \nframe=   79 fps=6.1 q=31.0 size=    3584KiB time=00:00:02.56 bitrate=11439.2kbits/s speed=0.197x elapsed=0:00:13.04    \nframe=   89 fps=6.6 q=31.0 size=    4096KiB time=00:00:02.90 bitrate=11570.6kbits/s speed=0.214x elapsed=0:00:13.55    \nframe=   94 fps=6.7 q=31.0 size=    4352KiB time=00:00:03.06 bitrate=11625.6kbits/s speed=0.218x elapsed=0:00:14.07    \nframe=  101 fps=6.9 q=30.0 size=    4608KiB time=00:00:03.30 bitrate=11439.1kbits/s speed=0.226x elapsed=0:00:14.58    \nframe=  101 fps=6.7 q=30.0 size=    4608KiB time=00:00:03.30 bitrate=11439.1kbits/s speed=0.219x elapsed=0:00:15.09    \nframe=  102 fps=6.5 q=30.0 size=    4608KiB time=00:00:03.33 bitrate=11324.7kbits/s speed=0.213x elapsed=0:00:15.61    \nframe=  109 fps=6.8 q=30.0 size=    4864KiB time=00:00:03.56 bitrate=11171.9kbits/s speed=0.221x elapsed=0:00:16.12    \nframe=  117 fps=7.0 q=30.0 size=    5376KiB time=00:00:03.83 bitrate=11488.8kbits/s speed=0.23x elapsed=0:00:16.64    \nframe=  121 fps=7.0 q=29.0 size=    5632KiB time=00:00:03.96 bitrate=11631.4kbits/s speed=0.231x elapsed=0:00:17.16    \nframe=  130 fps=7.4 q=28.0 size=    5888KiB time=00:00:04.26 bitrate=11305.0kbits/s speed=0.241x elapsed=0:00:17.67    \nframe=  137 fps=7.5 q=-1.0 size=    6400KiB time=00:00:04.50 bitrate=11650.9kbits/s speed=0.247x elapsed=0:00:18.19    \nframe=  144 fps=7.7 q=-1.0 size=    6656KiB time=00:00:04.73 bitrate=11519.6kbits/s speed=0.253x elapsed=0:00:18.70    \n[mp4 @ 0000023071cb15c0] Starting second pass: moving the moov atom to the beginning of the file\n[out#0/mp4 @ 0000023071ca9b40] video:7195KiB audio:0KiB subtitle:0KiB other streams:0KiB global headers:0KiB muxing overhead: 0.037286%\nframe=  150 fps=7.9 q=-1.0 Lsize=    7197KiB time=00:00:04.93 bitrate=11951.6kbits/s speed=0.26x elapsed=0:00:18.95    \n[libx264 @ 0000023072a175c0] frame I:1     Avg QP:26.84  size:183471\n[libx264 @ 0000023072a175c0] frame P:38    Avg QP:28.99  size: 72240\n[libx264 @ 0000023072a175c0] frame B:111   Avg QP:32.85  size: 39982\n[libx264 @ 0000023072a175c0] consecutive B-frames:  1.3%  0.0%  0.0% 98.7%\n[libx264 @ 0000023072a175c0] mb I  I16..4: 10.9% 81.6%  7.5%\n[libx264 @ 0000023072a175c0] mb P  I16..4:  0.4% 16.8%  1.3%  P16..4: 27.9% 12.2%  6.8%  0.0%  0.0%    skip:34.6%\n[libx264 @ 0000023072a175c0] mb B  I16..4:  0.0%  3.5%  0.4%  B16..8: 22.0%  8.8%  3.3%  direct: 5.8%  skip:56.1%  L0:39.3% L1:37.7% BI:23.0%\n[libx264 @ 0000023072a175c0] 8x8 transform intra:89.2% inter:72.5%\n[libx264 @ 0000023072a175c0] direct mvs  spatial:91.0% temporal:9.0%\n[libx264 @ 0000023072a175c0] coded y,uvDC,uvAC intra: 86.8% 24.2% 4.9% inter: 23.6% 3.6% 0.0%\n[libx264 @ 0000023072a175c0] i16 v,h,dc,p: 18% 32% 14% 36%\n[libx264 @ 0000023072a175c0] i8 v,h,dc,ddl,ddr,vr,hd,vl,hu:  6% 12%  7%  6% 17%  8% 23%  6% 14%\n[libx264 @ 0000023072a175c0] i4 v,h,dc,ddl,ddr,vr,hd,vl,hu:  5% 10%  8%  7% 19%  9% 22%  6% 15%\n[libx264 @ 0000023072a175c0] i8c dc,h,v,p: 66% 29%  4%  1%\n[libx264 @ 0000023072a175c0] Weighted P-Frames: Y:0.0% UV:0.0%\n[libx264 @ 0000023072a175c0] ref P L0: 43.7% 10.4% 25.7%  8.1% 12.1%\n[libx264 @ 0000023072a175c0] ref B L0: 77.2% 13.8%  6.4%  2.7%\n[libx264 @ 0000023072a175c0] ref B L1: 95.2%  4.8%\n[libx264 @ 0000023072a175c0] kb/s:11786.58\n",
  "seconds": 20.1859610080719,
  "probe_out": {}
}